#!OML:ASF F:\VICON\USERDATA\INSTALL\rory3\rory3.ASF
:FULLY-SPECIFIED
:DEGREES
103
root -0.2721218315362107 17.782851728060784 43.535246857392764 2.2192314168391603 -2.982430931104604 -2.1537265313154306
lfemur -2.1007228223257677 1.8933519825258187 -17.74199833956115
ltibia 52.81137873230439
lfoot 37.087293237887344 -18.913130548191727
ltoes -13.402068027711469
rfemur -32.67257557258818 3.7931792184610034 33.21730804049501
rtibia 9.261173801667006
rfoot -5.569498636994254 -3.1391824626315175
rtoes 3.258341236520535
lowerback 1.0 -0.7072232604500557 1.5607422967501607
upperback -0.10185568176197934 -0.14476238451064316 2.697310700311112
thorax -7.697165814409036 0.29660490101953474 2.038893565718457
lowerneck -19.67950140363963 -1.9632806066329191 -1.9770826581518839
upperneck 9.879164106812462 -3.226839486244074 1.0125425817081664
head 6.341505448478403 -1.5016692941216934 0.20334375906701085
lclavicle -4.50759146830036e-15 -1.66098806144398e-14
lhumerus -49.983298175531864 -12.64525636069913 96.80819024421002
lradius 110.26233516190017
lwrist 47.56838001634152
lhand -34.12952682475378 9.637214984072846
lfingers nan
lthumb -7.665354736482974 39.432482525219
rclavicle -5.0993260373792375e-15 -1.627239527968779e-14
rhumerus -52.71534906832281 3.8939262772702223 -92.90137361465007
rradius 121.38529619799212
rwrist -4.495838956550394
rhand -24.964180936470544 1.0
rfingers nan
rthumb 1.507937264270911 11.618024705799726
104
root -0.3082576729300907 17.752306792471334 42.85574593507293 2.604393871521536 -2.8158428623579193 -3.265523684647082
lfemur -4.355993487420156 2.6179055826627664 -15.389723288407986
ltibia 55.338958184714905
lfoot 34.32933336043011 -20.065879778699227
ltoes -13.502555163691348
rfemur -31.502767269956067 5.176890789569699 34.68573539269012
rtibia 10.792418856449878
rfoot -7.736112427319675 -5.249963901193475
rtoes 1.8459110909886212
lowerback 1.0 -0.7452016230547545 2.5968329378884536
upperback -0.08725095373988578 0.040958164510980666 3.0317913021986076
thorax -7.376195002290694 0.334664363549358 1.8199777228527738
lowerneck -20.26092714411976 -1.9714715215970124 -1.7886410986475079
upperneck 9.846106718647693 -3.268572557682201 0.7545035337516333
head 6.3901421598617505 -1.5385016318057327 0.07329581091965232
lclavicle 1.3656362892006886e-14 4.669480723367476e-15
lhumerus -50.65896544141349 -12.625167357162072 96.88121209014993
lradius 109.51243015646583
lwrist 47.26676292204489
lhand -33.8755628261402 4.773052778333129
lfingers nan
lthumb -7.379368997069467 34.5686471748296
rclavicle 1.3214929642022308e-14 5.112008131314516e-15
rhumerus -51.43513131270015 4.340318102767562 -93.15735319945068
rradius 121.07096063004934
rwrist -5.962076341511625
rhand -24.762578008230804 1.0
rfingers nan
rthumb 1.6862854702247496 11.302483639881316
105
root -0.3277182241467866 17.750761138151994 43.13593827202471 2.610447389244153 -2.253953556456011 -3.844760012478421
lfemur -6.65513948184849 3.0037434697248377 -13.515148287074117
ltibia 57.495597576789045
lfoot 31.364372460822402 -20.959929911332587
ltoes -12.360073968006581
rfemur -30.03554249325407 6.046437332037139 35.75589359657046
rtibia 11.865756820384242
rfoot -9.69819803015187 -7.088925816817449
rtoes 0.33496593593695856
lowerback 1.0 -0.8818168420601498 3.2676371202680086
upperback -0.15246736377834025 0.054900808756196184 3.2924179957758435
thorax -7.753648245523211 0.30061619857575717 1.748053616167311
lowerneck -20.294529317926052 -1.9216434523645818 -1.803130952344218
upperneck 9.901466879599008 -3.232983482243011 0.759103618832504
head 6.407869347046401 -1.5234152303666786 0.07691297712705658
lclavicle -3.584089942400444e-15 -1.4312036448919663e-14
lhumerus -51.542916605038556 -12.45889924267678 96.94375702975967
lradius 108.98591009182579
lwrist 46.976573007324596
lhand -34.56764672406067 0.360016249304099
lfingers nan
lthumb -7.977726262402168 30.156478760296068
rclavicle -3.722837852509051e-15 -1.3766692272502718e-14
rhumerus -50.20021619761138 4.940242505724625 -93.40579262337944
rradius 120.88155439495938
rwrist -5.86783631185061
rhand -24.82629186146273 1.0
rfingers nan
rthumb 1.631487146347621 10.111045750881944
106
root -0.3558247279578394 17.755318435154614 43.16184690520652 2.408708054857266 -1.6345869998753322 -3.7483628745831874
lfemur -9.16308263751332 3.3519178990474616 -12.360941081329154
ltibia 59.156235619888356
lfoot 28.042348898199425 -21.82714648175374
ltoes -13.191700120657664
rfemur -28.734083112480796 6.470725543778078 36.1800203161128
rtibia 12.545447332410227
rfoot -11.410439190087079 -8.753597249458753
rtoes -2.1375583431204475
lowerback 1.0 -0.9969821417579059 3.069292424086533
upperback -0.2599464986953026 -0.043150082327593875 3.459500976868604
thorax -8.29602267259213 0.25322497286204937 1.9689425754867829
lowerneck -19.47181043745894 -1.87841320598115 -2.013797889160634
upperneck 9.580475029921534 -3.122117006865717 0.8421015108325589
head 6.202611352958726 -1.4743273029810986 0.16165380907804427
lclavicle 1.4856876500863366e-15 -8.789647146320425e-15
lhumerus -52.674616861497064 -12.07508128045336 97.08914979319341
lradius 108.79283264011741
lwrist 47.16826120213007
lhand -35.06093682552493 -1.0407272528078886
lfingers nan
lthumb -8.418989291783639 28.77695624284278
rclavicle 2.1792857012006754e-15 -7.509731974352054e-15
rhumerus -49.1877454810768 5.628770983703837 -93.59098274399777
rradius 121.22316428110233
rwrist -4.464526606335063
rhand -24.248139695137176 1.0
rfingers nan
rthumb 2.1984246097284927 9.899015218201544
